<svg width="75" height="75" viewBox="0 0 75 75" fill="none" xmlns="http://www.w3.org/2000/svg">
<path d="M55 0C66.0457 0 75 8.95431 75 20V55C75 66.0457 66.0457 75 55 75H20C8.95431 75 5.63762e-07 66.0457 0 55V20C0 8.95431 8.95431 5.63725e-07 20 0H55ZM31.2129 16.7871C30.0413 15.6155 28.1423 15.6155 26.9707 16.7871L7.87891 35.8789C6.70733 37.0505 6.70733 38.9495 7.87891 40.1211L26.9707 59.2129C28.1423 60.3845 30.0413 60.3845 31.2129 59.2129C32.3845 58.0413 32.3845 56.1423 31.2129 54.9707L17.2422 41H65V35H17.2422L31.2129 21.0293C32.3845 19.8577 32.3845 17.9587 31.2129 16.7871Z" fill="#0BB697"/>
</svg>
